<svg width="113" height="36" viewBox="0 0 113 36" fill="none" xmlns="http://www.w3.org/2000/svg">
<path d="M28.5146 0.465942L16.9388 24.0219H8.34961L3.26025 0.465942H10.4465L13.5677 17.473L21.3626 0.465942H28.5146Z" fill="#1A1A1A"/>
<path d="M36.4539 5.71173L35.9229 9.55419H43.6104L42.9224 14.5327H35.2349L34.6485 18.7761H43.361L42.6361 24.0219H27.2269L30.4822 0.465942H45.8914L45.1664 5.71173H36.4539Z" fill="#1A1A1A"/>
<path d="M53.2311 19.01H60.7112L60.0188 24.0219H45.8441L49.0984 0.465942H55.7929L53.2311 19.01Z" fill="#1A1A1A"/>
<path d="M72.7234 24.2555C70.4651 24.2555 68.452 23.7209 66.7134 22.6851C64.9703 21.6827 63.6682 20.2126 62.8277 18.3749C61.9529 16.5372 61.6921 14.4656 62.0111 12.1601C62.3302 9.85464 63.169 7.74965 64.5524 5.91195C65.9016 4.07425 67.6014 2.67092 69.6266 1.63513C71.6518 0.599335 73.8083 0.0981445 76.0666 0.0981445C78.359 0.0981445 80.3768 0.599335 82.1154 1.63513C83.8197 2.67092 85.131 4.07425 85.9715 5.91195C86.8121 7.74965 87.0683 9.85464 86.7492 12.1601C86.4301 14.4656 85.596 16.5372 84.2468 18.3749C82.8975 20.2126 81.1886 21.6827 79.168 22.6851C77.1428 23.7209 74.9816 24.2555 72.7234 24.2555ZM73.565 18.1744C75.2758 18.1744 76.7184 17.6398 77.8632 16.5372C79.0081 15.4346 79.6859 13.9978 79.9403 12.1601C80.1992 10.289 79.9236 8.81885 79.084 7.71623C78.2397 6.64703 76.945 6.11242 75.2342 6.11242C73.4892 6.11242 72.0808 6.64703 70.9406 7.71623C69.7957 8.81885 69.1133 10.289 68.8543 12.1601C68.6 13.9978 68.8756 15.468 69.7199 16.5372C70.5595 17.6398 71.82 18.1744 73.565 18.1744Z" fill="#1A1A1A"/>
<path d="M101.041 24.0219L97.9043 18.5088L84.6929 35.8834H75.8346L94.2022 11.8931L87.7113 0.465942H95.612L98.7141 5.97903L102.931 0.465942H111.687L102.425 12.5279L108.941 24.0219H101.041Z" fill="#FF7701"/>
</svg>
