<svg width="322" height="71" viewBox="0 0 322 71" fill="none" xmlns="http://www.w3.org/2000/svg">
<path d="M18.2409 47.3082C18.4419 47.3082 18.6429 47.2078 18.7434 47.007C20.2007 44.1454 21.0047 40.079 21.0047 35.4603C21.0047 34.4061 20.9545 33.3016 20.854 32.1469L24.07 9.55569C24.07 9.30468 23.8187 9.05366 23.5675 9.00346H23.467C23.2157 9.00346 23.0147 9.20427 22.9645 9.45528L20.3514 27.8797L20.2509 27.3275C18.9444 20.0481 16.2812 13.6723 12.9646 9.95731C14.4219 9.8067 16.0299 9.60589 17.7887 9.35488C27.085 8.04961 38.1401 6.1419 46.1802 4.73622C51.5067 3.78237 55.7278 3.07953 56.2805 3.07953C56.783 3.07953 56.9338 3.17994 56.9338 3.23014V3.28034C56.9338 3.58156 56.5318 4.3346 55.8785 4.98724C55.778 5.08764 55.7278 5.23825 55.7278 5.38886C55.7278 5.53947 55.778 5.69008 55.9288 5.79048C56.0293 5.89089 56.18 5.94109 56.3308 5.94109C56.4313 5.94109 56.582 5.89089 56.6825 5.79048C57.0845 5.38886 58.0393 4.23419 58.0393 3.28034C58.0393 3.07953 57.989 2.92892 57.9388 2.77831C57.7378 2.22608 57.185 1.97507 56.2805 1.97507C55.6775 1.97507 52.3107 2.5273 46.0294 3.63176C38.1904 4.98723 27.4368 6.84474 18.2912 8.15001C15.9797 8.45123 13.8691 8.75244 11.9596 8.95326C10.1004 7.19616 8.09034 6.34271 6.08033 6.34271C4.72356 6.34271 3.41705 6.69413 2.06029 7.44717C1.05528 8.04961 2.28882e-05 8.70224 2.28882e-05 9.45528L0.0502733 9.7565C0.301526 10.3589 1.00503 10.7104 3.5678 10.7104C4.22106 10.7104 4.97482 10.7104 5.87932 10.6601C7.43709 10.5597 9.3466 10.4091 11.6079 10.1581C15.0249 13.5719 17.8389 20.0481 19.1454 27.4781C19.4469 29.0846 19.5977 30.5907 19.7484 32.0967L17.6882 46.8062C17.6882 47.007 17.8389 47.2078 18.0399 47.3082H18.2409ZM3.61805 9.60589C2.06029 9.60589 1.45729 9.45528 1.20603 9.40508C1.35678 9.25447 1.70854 8.90305 2.61305 8.40103C3.76881 7.74839 4.92457 7.44717 6.03008 7.44717C7.53759 7.44717 8.99485 7.9994 10.4521 9.15407L6.48233 9.50549C5.27632 9.60589 4.37181 9.60589 3.61805 9.60589Z" fill="white"/>
<path d="M28.7025 41.5776C28.9537 41.5776 29.205 41.3767 29.2552 41.0755V40.9249C29.6572 38.465 32.9235 32.2398 34.9335 31.3362L35.2853 31.2358C35.3858 31.2358 35.436 31.2358 35.436 31.286C35.7878 31.537 35.8883 32.039 35.8883 32.6415C35.8883 33.1435 35.838 33.6957 35.7375 34.2981C35.637 34.8504 35.5868 35.4528 35.5868 36.005C35.5868 36.3063 35.5868 36.6075 35.637 36.8585C35.7878 37.8625 36.441 38.465 37.4461 38.6658L38.1496 38.716C40.0088 38.716 41.9686 37.5111 43.4259 36.4067C45.2851 35.001 47.1444 33.0431 48.4007 31.1354C48.4509 31.035 48.5012 30.9346 48.5012 30.8342C48.5012 30.6333 48.4007 30.4827 48.2499 30.3823C48.1494 30.3321 48.0489 30.2819 47.9484 30.2819C47.7474 30.2819 47.5966 30.3823 47.4961 30.5329C46.2901 32.3402 44.5314 34.1977 42.7726 35.5532C41.0138 36.9087 39.4561 37.6115 38.1998 37.6115L37.6471 37.5613C36.9435 37.4107 36.6923 37.0091 36.6923 36.1556C36.6923 35.7038 36.7425 35.1516 36.843 34.4488C36.9435 33.8463 36.9938 33.1937 36.9938 32.5912C36.9938 31.7378 36.7928 30.8844 36.0893 30.3823C35.8883 30.2317 35.637 30.1313 35.2853 30.1313C35.034 30.1313 34.7325 30.1815 34.431 30.3321C33.024 30.9848 31.3657 33.3945 30.0592 35.8042C30.4612 33.5451 30.9637 31.1354 31.5165 28.6754H31.7175C33.024 28.6754 34.23 28.2738 35.3858 27.4204C38.1998 25.4624 40.7626 20.9442 42.4711 15.1207C43.5264 11.5563 44.0791 7.99187 44.0791 5.28092C44.0791 4.12626 43.9786 3.17241 43.7776 2.41936C43.3254 0.913279 42.5213 0.561859 41.9686 0.561859H41.8178C40.5616 0.561859 39.2551 2.01774 37.7978 5.02991C36.5415 7.54005 35.1848 11.2049 33.828 15.5725C32.7225 19.2373 31.617 23.3539 30.6622 27.4204C30.0592 27.2697 29.406 26.9183 28.7527 26.5167C28.6522 26.4163 28.5517 26.4163 28.401 26.4163C28.2502 26.4163 28.0995 26.4665 27.999 26.6171L27.8985 26.9183C27.8985 27.1191 27.999 27.2697 28.1497 27.4204C28.9035 27.9224 29.6572 28.2738 30.411 28.4746C29.4562 32.9427 28.602 37.2601 28.1497 40.8245V41.0755C28.1497 41.3265 28.3507 41.5273 28.602 41.5776H28.7025ZM31.7678 27.571C32.7225 23.6049 33.7778 19.5385 34.8833 15.9239C38.0993 5.43153 40.6621 1.66632 41.8681 1.66632H41.9183C42.3203 1.66632 42.5716 2.26875 42.6721 2.72058C42.8731 3.37322 42.9736 4.27687 42.9736 5.33113C42.9736 7.89147 42.4208 11.3555 41.4158 14.8195C39.7576 20.392 37.3456 24.7094 34.7828 26.5167C33.7778 27.2195 32.7728 27.571 31.7678 27.571Z" fill="white"/>
<path d="M50.2449 38.2642C51.8026 38.2642 53.4106 37.5614 55.0689 36.2059C56.9282 34.6998 58.4859 32.5913 59.4909 31.1354C59.5412 31.035 59.5412 30.9848 59.5412 30.8844C59.5412 30.6836 59.4407 30.4828 59.2899 30.3824C59.1894 30.3322 59.0889 30.282 58.9884 30.282C58.7874 30.282 58.6367 30.3824 58.5362 30.533C57.1292 32.6415 53.7624 37.1095 50.2449 37.1095C49.7424 37.1095 49.2901 37.0593 48.7876 36.8585C47.6318 36.4569 47.0791 35.6537 47.0791 34.5994C47.0791 34.0974 47.1796 33.5953 47.3806 32.9929L47.7826 32.0391C48.2348 33.2941 48.9886 33.5451 49.5414 33.5451C51.3001 33.5451 53.2096 30.5832 53.5111 28.6755L53.5614 28.1232C53.5614 27.1192 52.9584 26.818 52.7071 26.7176C52.5564 26.6674 52.4056 26.6674 52.2549 26.6674C50.3956 26.6674 47.2801 29.8803 46.3253 32.5913C46.0741 33.2941 45.9736 33.9468 45.9736 34.5492C45.9736 36.1055 46.7776 37.3104 48.3856 37.9128C48.9886 38.1638 49.6419 38.2642 50.2449 38.2642ZM49.5414 32.4407C49.1394 32.4407 48.7876 31.8382 48.6368 30.7338H48.5866C48.9886 30.1816 49.4911 29.6293 49.9936 29.1273C51.0489 28.1232 51.8529 27.7718 52.2046 27.7718H52.3554C52.4056 27.822 52.4559 27.9224 52.4559 28.1232L52.4056 28.4747C52.1544 30.1314 50.4961 32.4407 49.5414 32.4407Z" fill="white"/>
<path d="M80.8474 51.5252C84.2645 51.5252 87.9327 50.8224 91.2995 49.4669C94.9176 48.011 98.0331 45.9025 100.244 43.3924C102.857 40.33 104.314 36.7656 104.465 32.6992V32.2474C108.636 31.5445 112.405 31.1429 115.068 31.0425C115.369 31.0425 115.57 30.7915 115.57 30.4903C115.57 30.189 115.319 29.938 115.018 29.938C112.405 30.0384 108.636 30.4401 104.465 31.0927C104.314 29.3356 103.762 27.7793 102.807 26.4238C101.701 24.9679 100.144 23.7631 98.1336 22.9598C95.9728 22.0562 93.5608 21.6546 91.4 21.504C94.7166 19.8473 97.7316 17.8392 99.8421 15.831C102.455 13.3711 103.762 10.9112 103.762 8.60184C103.762 7.9492 103.661 7.29656 103.41 6.64393C102.455 4.08358 99.6914 2.5273 95.3196 2.07547C94.5658 2.02527 93.7618 1.97507 92.9075 1.97507C89.5408 1.97507 85.6212 2.5273 82.0032 3.53135C77.3801 4.88683 74.1139 6.74433 72.9581 8.60184C72.6064 9.10387 72.4556 9.65609 72.4556 10.1581C72.4556 10.6602 72.6064 11.112 72.9079 11.5638C73.0084 11.7144 73.1591 11.8148 73.3601 11.8148C73.4606 11.8148 73.5611 11.7646 73.6616 11.7144C73.8124 11.614 73.9129 11.4132 73.9129 11.2124C73.9129 11.112 73.9129 11.0618 73.8626 10.9614C73.6616 10.7104 73.5611 10.4593 73.5611 10.1581C73.5611 9.85691 73.7119 9.55569 73.9129 9.20427C74.8676 7.59778 78.0837 5.84068 82.3047 4.63582C85.8222 3.63176 89.591 3.07953 92.8573 3.07953C93.7115 3.07953 94.4653 3.12973 95.2191 3.17993C97.9326 3.48115 101.4 4.3346 102.355 7.04555C102.556 7.59778 102.656 8.15001 102.656 8.70224C102.656 13.1201 96.5256 17.2869 93.6613 19.044C92.1538 19.8975 90.5458 20.7509 88.9378 21.4538C88.2342 21.4538 87.581 21.504 87.0282 21.5542C85.6212 21.6044 84.1137 21.8052 82.8574 22.1064L85.571 7.44717C85.571 7.19616 85.37 6.99535 85.1187 6.94514L84.968 6.89494C84.7167 6.89494 84.5157 7.09575 84.4655 7.34677L81.7017 22.4076C80.8977 22.6084 80.3449 22.9096 80.0434 23.1606C79.8927 23.3113 79.8424 23.5121 79.8424 23.6627C79.8424 23.8133 79.8927 23.9137 79.9429 24.0141C80.1439 24.4157 80.5962 24.6667 81.2494 24.7169L78.5862 39.1251C75.2696 41.1332 73.2094 43.292 72.3551 45.5511C72.2044 46.0029 72.1039 46.5049 72.1039 46.9568C72.1039 47.8604 72.4556 48.7139 73.2094 49.3665C74.5661 50.722 77.2294 51.475 80.6464 51.5252H80.8474ZM80.6967 50.4208C77.5812 50.3706 75.1189 49.7179 73.9631 48.5633C73.4606 48.1114 73.2094 47.5592 73.2094 46.9568C73.2094 46.6556 73.3099 46.3041 73.4104 45.9527C74.1641 43.9446 75.9731 42.1373 78.2847 40.6312L77.5309 44.9989C77.5309 45.2499 77.7319 45.5009 77.9832 45.5511H78.0837C78.3349 45.5511 78.5359 45.3503 78.5862 45.0993L79.5912 39.828C83.2092 37.7697 87.782 36.1632 91.802 35.0085C95.5708 33.9542 99.5908 33.1008 103.36 32.4482V32.649C102.958 42.2377 95.3698 46.6556 90.8975 48.4629C87.6312 49.7179 83.963 50.4208 80.6967 50.4208ZM79.8424 38.4223L82.4052 24.7169C84.0635 24.5161 86.4755 23.7631 89.189 22.5582C92.1035 22.5582 95.2693 22.9096 97.9326 24.0643C101.249 25.5202 103.108 27.9299 103.36 31.2935C94.8171 32.7494 85.772 35.2093 79.8424 38.4223ZM82.6062 23.5623L82.6564 23.2611C83.4102 23.1104 84.4152 22.9096 85.571 22.8092C84.3147 23.2109 83.36 23.4117 82.6062 23.5623Z" fill="white"/>
<path d="M114.555 38.1491C114.756 38.1491 114.907 38.1491 115.108 38.0989C116.515 37.7977 118.274 36.2414 119.731 33.9823L119.781 33.8819C119.982 33.9321 120.133 34.0325 120.284 34.0827C120.686 34.1831 121.088 34.2333 121.54 34.2333C123.198 34.2333 125.208 33.3296 126.716 31.1207L126.816 30.8195C126.816 30.6187 126.716 30.4681 126.565 30.3677C126.465 30.3175 126.364 30.2673 126.264 30.2673C126.063 30.2673 125.912 30.3677 125.811 30.5183C124.505 32.3758 122.897 33.1288 121.59 33.1288C121.239 33.1288 120.937 33.0786 120.636 32.9782L120.384 32.928C121.188 31.4219 121.842 29.715 121.842 28.3094V28.0583C121.741 26.8033 121.038 26.0502 119.882 26H119.731C119.329 26 118.977 26.1506 118.726 26.4519C117.671 27.4057 117.621 29.6648 117.621 30.1167C117.621 31.4219 118.073 32.5264 118.877 33.2794L118.827 33.3798C117.52 35.388 115.962 36.7936 114.857 37.0447L114.606 37.0949C114.354 37.0949 114.304 36.9945 114.304 36.9442C114.204 36.7936 114.153 36.5426 114.153 36.1912C114.153 35.4382 114.405 34.1831 115.108 32.2754C115.862 30.1669 116.817 28.1588 117.068 27.8575C117.118 27.7571 117.118 27.6567 117.118 27.5563C117.118 27.3555 117.018 27.2049 116.867 27.0543C116.766 27.0041 116.716 27.0041 116.616 27.0041C116.415 27.0041 116.214 27.1045 116.113 27.2551C115.862 27.6567 114.807 29.715 114.053 31.8738C113.249 34.0325 113.048 35.388 113.048 36.2414C113.048 37.0949 113.249 37.3961 113.4 37.5969C113.601 37.8479 113.952 38.1491 114.555 38.1491ZM119.48 32.2754C118.977 31.7232 118.726 31.0203 118.726 30.1167C118.726 29.0122 118.977 27.7069 119.48 27.2551C119.58 27.1045 119.731 27.1045 119.781 27.1045H119.832C120.234 27.1045 120.686 27.2551 120.736 28.1085V28.3596C120.736 29.3636 120.284 30.8195 119.48 32.2754Z" fill="white"/>
<path d="M122.318 69.929C123.473 69.929 124.529 69.5776 125.534 68.7743C131.061 64.4067 132.619 48.3418 133.523 36.6445C135.885 34.4858 138.599 32.6283 141.714 31.323C141.966 31.2226 142.066 31.0218 142.066 30.821C141.966 30.4696 141.865 30.2688 141.513 30.2688L141.312 30.319C138.448 31.4737 135.885 33.1303 133.674 35.0381L134.026 30.3692C134.981 29.0639 135.785 27.5076 135.785 26.2024C135.785 25.1481 135.031 24.1942 134.579 24.1942C133.724 24.3449 133.423 24.8469 132.971 29.9676C131.815 31.5741 130.106 33.3312 128.398 34.7368C126.689 36.0923 125.684 36.4939 125.282 36.4939H125.182C125.182 36.4939 125.081 36.3433 125.081 36.0421C125.081 35.4899 125.282 34.3854 126.287 32.1765C127.242 30.068 128.448 28.1101 128.448 28.0599C128.498 27.9595 128.498 27.9093 128.498 27.8088C128.498 27.5076 128.247 27.2566 127.996 27.2566C127.795 27.2566 127.594 27.357 127.493 27.5076C127.443 27.5578 126.237 29.5659 125.282 31.7247C124.378 33.6324 123.976 35.0883 123.976 36.0421C123.976 36.996 124.378 37.5984 125.232 37.5984C126.79 37.5984 129.855 35.3393 132.77 31.9757L132.468 36.0923C128.398 39.9077 125.584 44.2754 123.976 47.1871C120.609 53.2617 118.549 59.9386 118.549 64.5071C118.549 69.5274 120.911 69.929 122.318 69.929ZM122.368 68.8245L121.664 68.7743C120.006 68.5233 119.654 66.2642 119.654 64.4067C119.654 60.0893 121.664 53.6131 124.931 47.7394C126.388 45.0786 128.85 41.2632 132.317 37.7992C131.262 51.2034 129.101 68.8245 122.368 68.8245ZM134.327 27.608C134.428 26.7546 134.528 26.2024 134.629 25.8007L134.679 26.2024C134.679 26.604 134.579 27.0558 134.327 27.608Z" fill="white"/>
<path d="M141.246 46.6597C143.156 46.4589 145.417 44.6516 146.02 40.1334C146.121 39.4305 146.171 38.7779 146.171 38.1755C146.171 37.4224 146.07 36.7196 145.97 36.1171C147.377 35.4143 148.784 34.4102 151.296 31.1973C151.347 31.0969 151.397 30.9463 151.397 30.8458C151.397 30.645 151.347 30.4944 151.196 30.394C151.095 30.2936 150.945 30.2936 150.844 30.2936C150.693 30.2936 150.492 30.3438 150.392 30.4944C148.181 33.356 146.975 34.3098 145.719 35.0127C145.065 32.9042 143.809 31.6491 142.854 30.7454L142.653 30.4944C143.307 29.6912 144.412 28.0847 144.412 26.9802L144.362 26.679C144.261 26.3276 144.06 26.0264 143.759 25.8758C143.558 25.7754 143.307 25.7252 143.106 25.7252C142.754 25.7252 142.352 25.8758 142 26.1268C141.246 26.6288 140.493 27.7333 140.493 28.8879V29.0887C140.543 29.8418 140.945 30.394 141.498 30.9462L142.101 31.5487C143.055 32.5025 144.211 33.5568 144.714 35.4645C144.211 35.7155 143.608 36.0167 142.955 36.4184C140.794 37.7236 139.236 39.1293 138.332 40.5852C137.779 41.4888 137.528 42.4427 137.528 43.2961C137.528 43.6476 137.578 43.999 137.678 44.3504C138.181 45.7561 139.437 46.6597 140.895 46.6597H141.246ZM141.146 45.5553H140.945C139.89 45.5553 139.086 44.9528 138.784 43.999C138.684 43.748 138.684 43.497 138.684 43.1957C138.684 41.6897 139.89 39.5309 143.558 37.3722C144.06 37.071 144.513 36.82 144.965 36.6192C145.015 37.071 145.015 37.5228 145.015 38.0248C145.015 38.6273 145.015 39.2799 144.915 39.9828C144.412 43.8484 142.603 45.4047 141.146 45.5553ZM141.849 29.641C141.699 29.4402 141.648 29.2394 141.598 28.9883V28.8879C141.598 28.1851 142.101 27.3819 142.603 27.0304C142.704 26.9802 142.905 26.8296 143.106 26.8296C143.156 26.8296 143.206 26.8296 143.256 26.8798L143.307 26.9802C143.307 27.3819 142.804 28.4361 141.849 29.641Z" fill="white"/>
<path d="M172.098 38.7587C175.415 38.7587 178.53 34.6923 180.892 31.1279L180.993 30.8267C180.993 30.6259 180.892 30.4752 180.691 30.3748C180.591 30.3246 180.49 30.2744 180.39 30.2744C180.189 30.2744 180.038 30.3748 179.937 30.5254C177.927 33.5878 174.912 37.6542 172.098 37.6542H172.048C171.545 37.604 171.395 37.4534 171.294 37.3028C171.143 37.102 171.093 36.8008 171.093 36.4996C171.093 34.7425 172.601 31.4793 173.505 29.3708C174.309 27.5635 174.762 26.5594 174.762 25.957C174.762 25.6558 174.661 25.5052 174.46 25.3546L174.158 25.2542L173.957 25.3044C173.807 25.3044 173.656 25.455 173.606 25.6056L172.048 29.2704V29.1198C172.048 27.5133 171.395 27.0112 170.792 26.8606L170.44 26.8104C169.033 26.8104 167.425 28.3667 166.721 29.0696C165.214 30.5756 164.058 32.4332 163.556 33.9894C163.355 34.5417 163.304 35.0437 163.304 35.5457C163.304 36.7506 163.857 37.6542 164.963 38.1061C165.214 38.2065 165.465 38.2567 165.767 38.2567C166.118 38.2567 166.52 38.1563 166.872 38.0057C167.927 37.5538 169.083 36.4494 170.289 34.6923C170.138 35.3951 170.038 35.9976 170.038 36.5498C170.038 37.102 170.138 37.5538 170.339 37.9053C170.591 38.3069 171.093 38.7085 171.998 38.7587H172.098ZM165.767 37.1522L165.365 37.0518C165.113 36.9514 164.41 36.6502 164.41 35.5457C164.41 35.2445 164.46 34.8429 164.611 34.3409C165.063 32.9352 166.169 31.2283 167.525 29.8226C168.782 28.5173 169.887 27.9651 170.39 27.9651H170.54C170.792 28.0153 170.892 28.4169 170.892 29.0696C170.892 29.3206 170.892 29.6218 170.842 29.9732V30.0736C170.842 30.3748 171.043 30.5756 171.294 30.6259H171.344C169.033 35.2445 167.324 36.6 166.42 37.0016C166.169 37.102 165.968 37.1522 165.767 37.1522Z" fill="white"/>
<path d="M178.89 61.2068C178.991 61.2068 179.091 61.2068 179.192 61.1566C179.343 61.006 179.443 60.8554 179.443 60.6546L179.343 60.3534C178.79 59.4999 178.539 57.5922 178.539 54.7307C178.539 49.5096 179.443 41.1759 181.152 30.4325C181.202 30.4325 181.202 30.3823 181.202 30.3321C182.458 27.6212 183.815 23.1531 185.021 17.8818C188.639 18.1328 192.156 18.5345 194.92 18.8859H195.021C195.272 18.8859 195.523 18.6851 195.573 18.4341C195.573 18.1328 195.372 17.8316 195.071 17.7814C192.307 17.43 188.89 17.0284 185.222 16.7774C185.473 15.7733 185.674 14.7693 185.875 13.715C186.177 12.2089 187.433 5.73275 187.433 2.51977C187.433 1.86713 187.383 1.3149 187.232 1.01368C187.081 0.712468 186.88 0.612062 186.729 0.561859H186.579C186.428 0.561859 186.227 0.612062 186.076 0.812873C185.674 1.3651 184.619 6.13437 183.815 9.99999C183.463 11.5563 183.011 13.8154 182.458 16.6268C181.152 16.5766 179.845 16.5263 178.589 16.5263H177.182C169.594 16.6268 165.222 17.8818 163.865 20.392C163.815 20.4924 163.815 20.5426 163.815 20.643C163.815 20.8438 163.916 21.0446 164.066 21.145L164.318 21.1952C164.519 21.1952 164.72 21.0948 164.82 20.894C165.624 19.4883 168.388 17.7312 177.182 17.6308H178.539C179.745 17.6308 181.001 17.681 182.257 17.7312C181.654 20.9442 180.951 24.7596 180.297 28.9264C178.991 36.9087 178.086 43.5857 177.684 48.8569C177.534 51.0659 177.433 52.9736 177.433 54.6303C177.433 57.8433 177.735 59.9016 178.388 60.9558C178.539 61.1064 178.689 61.2068 178.89 61.2068ZM182.207 24.2576L183.363 17.7814H183.865C183.312 20.1409 182.76 22.2997 182.207 24.2576ZM184.116 16.7272L183.614 16.677C184.619 11.3053 185.574 6.83721 186.227 4.17646C186.026 6.78701 185.272 11.6065 184.116 16.7272Z" fill="white"/>
<path d="M232.997 16.1074L220.736 41.8191H211.574L206.059 16.1074H213.724L217.116 34.6708L225.368 16.1074H232.997Z" fill="white"/>
<path d="M241.417 21.8333L240.864 26.0274H249.076L248.359 31.4614H240.147L239.536 36.0932H248.843L248.088 41.8191H231.627L235.018 16.1074H251.479L250.724 21.8333H241.417Z" fill="white"/>
<path d="M259.306 36.3485H267.299L266.578 41.8191H251.431L254.822 16.1074H261.976L259.306 36.3485Z" fill="white"/>
<path d="M280.079 42.083C277.67 42.083 275.52 41.4994 273.662 40.3688C271.798 39.2747 270.404 37.67 269.501 35.6642C268.561 33.6583 268.275 31.3971 268.607 28.8806C268.938 26.3642 269.826 24.0665 271.295 22.0607C272.727 20.0548 274.535 18.523 276.692 17.3925C278.849 16.2619 281.147 15.7148 283.556 15.7148C286.002 15.7148 288.156 16.2619 290.015 17.3925C291.837 18.523 293.241 20.0548 294.144 22.0607C295.048 24.0665 295.329 26.3642 294.997 28.8806C294.665 31.3971 293.783 33.6583 292.35 35.6642C290.918 37.67 289.1 39.2747 286.948 40.3688C284.791 41.4994 282.488 42.083 280.079 42.083ZM280.954 35.4453C282.779 35.4453 284.316 34.8618 285.534 33.6583C286.751 32.4548 287.469 30.8865 287.733 28.8806C288.003 26.8383 287.703 25.2336 286.803 24.0301C285.899 22.863 284.516 22.2795 282.691 22.2795C280.829 22.2795 279.329 22.863 278.116 24.0301C276.899 25.2336 276.176 26.8383 275.907 28.8806C275.642 30.8865 275.942 32.4912 276.846 33.6583C277.746 34.8618 279.093 35.4453 280.954 35.4453Z" fill="white"/>
<path d="M310.177 41.8191L306.81 35.8014L292.775 54.7661H283.321L302.835 28.5803L295.866 16.1074H304.297L307.628 22.125L312.108 16.1074H321.452L311.613 29.2732L318.609 41.8191H310.177Z" fill="#FF7701"/>
</svg>
